<svg width="156" height="134" viewBox="0 0 156 134" fill="none" xmlns="http://www.w3.org/2000/svg">
<path d="M15.12 53.096H31.528V62H2.8V53.656L19.04 31.368H2.8V22.52H31.528V30.864L15.12 53.096ZM56.4078 62.392C52.7118 62.392 49.3144 61.5333 46.2158 59.816C43.1171 58.0613 40.6531 55.6533 38.8238 52.592C37.0318 49.4933 36.1358 46.0027 36.1358 42.12C36.1358 38.2373 37.0318 34.7653 38.8238 31.704C40.6531 28.6053 43.1171 26.1973 46.2158 24.48C49.3144 22.7627 52.7118 21.904 56.4078 21.904C60.1411 21.904 63.5384 22.7627 66.5998 24.48C69.6984 26.1973 72.1438 28.6053 73.9358 31.704C75.7278 34.7653 76.6238 38.2373 76.6238 42.12C76.6238 46.0027 75.7278 49.4933 73.9358 52.592C72.1438 55.6533 69.6984 58.0613 66.5998 59.816C63.5011 61.5333 60.1038 62.392 56.4078 62.392ZM56.4078 52.2C59.2078 52.2 61.4104 51.2853 63.0158 49.456C64.6584 47.6267 65.4798 45.1813 65.4798 42.12C65.4798 38.984 64.6584 36.52 63.0158 34.728C61.4104 32.8987 59.2078 31.984 56.4078 31.984C53.5704 31.984 51.3491 32.8987 49.7438 34.728C48.1384 36.52 47.3358 38.984 47.3358 42.12C47.3358 45.2187 48.1384 47.6827 49.7438 49.512C51.3491 51.304 53.5704 52.2 56.4078 52.2ZM118.126 62H107.15L92.5339 39.936V62H81.5579V22.52H92.5339L107.15 44.864V22.52H118.126V62ZM135.354 31.312V37.752H147.954V46.096H135.354V53.208H149.634V62H124.378V22.52H149.634V31.312H135.354Z" fill="#a82c3a"/>
<path d="M34.328 85.68C34.328 88.0693 33.768 90.2533 32.648 92.232C31.5653 94.1733 29.904 95.7413 27.664 96.936C25.4613 98.0933 22.7547 98.672 19.544 98.672H14.112V112H3.136V72.52H19.544C22.7173 72.52 25.4053 73.08 27.608 74.2C29.848 75.32 31.528 76.8693 32.648 78.848C33.768 80.8267 34.328 83.104 34.328 85.68ZM18.48 89.936C21.5787 89.936 23.128 88.5173 23.128 85.68C23.128 82.8053 21.5787 81.368 18.48 81.368H14.112V89.936H18.48ZM63.7136 105.56H49.7136L47.5856 112H36.0496L50.4416 72.52H63.0976L77.4336 112H65.8416L63.7136 105.56ZM60.9696 97.16L56.7136 84.392L52.5136 97.16H60.9696ZM101.003 112L93.163 97.44H91.987V112H81.011V72.52H98.315C101.488 72.52 104.176 73.08 106.379 74.2C108.582 75.2827 110.243 76.7947 111.363 78.736C112.483 80.64 113.043 82.7867 113.043 85.176C113.043 87.864 112.296 90.2347 110.803 92.288C109.347 94.304 107.2 95.7413 104.363 96.6L113.267 112H101.003ZM91.987 89.936H97.419C98.9123 89.936 100.032 89.5813 100.779 88.872C101.526 88.1627 101.899 87.136 101.899 85.792C101.899 84.5227 101.507 83.5333 100.723 82.824C99.9763 82.0773 98.875 81.704 97.419 81.704H91.987V89.936ZM141.386 112L129.01 94.696V112H118.034V72.52H129.01V89.544L141.274 72.52H153.93L139.426 91.672L154.658 112H141.386Z" fill="black"/>
</svg>
